PathFileType	4	(X/Y/Z)	pose_F01_0-71.trc
DataRate	CameraRate	NumFrames	NumMarkers	Units	OrigDataRate	OrigDataStartFrame	OrigNumFrames
30	30	9	21	m	30	23	71
Frame#	Time	CHip			RHip			RKnee			RAnkle			RBigToe			RSmallToe			RHeel			LHip			LKnee			LAnkle			LBigToe			LSmallToe			LHeel			Neck			Nose			RShoulder			RElbow			RWrist			LShoulder			LElbow			LWrist			
		X1	Y1	Z1	X2	Y2	Z2	X3	Y3	Z3	X4	Y4	Z4	X5	Y5	Z5	X6	Y6	Z6	X7	Y7	Z7	X8	Y8	Z8	X9	Y9	Z9	X10	Y10	Z10	X11	Y11	Z11	X12	Y12	Z12	X13	Y13	Z13	X14	Y14	Z14	X15	Y15	Z15	X16	Y16	Z16	X17	Y17	Z17	X18	Y18	Z18	X19	Y19	Z19	X20	Y20	Z20	X21	Y21	Z21	
23	0.7666666666666667	-0.24292490528155147	1.8823180965385384	-0.49895716757769676	-0.2559819311180226	1.8793866869242524	-0.4445189712959166	-0.24250552642738651	1.7386151446958087	-0.48420687956360114													-0.22493645985394345	1.8878432857771776	-0.5579195043443976	-0.21969351139567495	1.746782108651449	-0.5664776826073638	-0.2092479918127163	1.5923270907167926	-0.5589120710333628	-0.209976686444023	1.5561856975841062	-0.6323597682257236	-0.19885044966041507	1.5655089514086094	-0.6444598548105795	-0.20916477048972001	1.6000479202585927	-0.5487245952072881	-0.2420052122474323	2.0454599104013163	-0.49603921655384453	-0.2510342363543146	2.1074724233788387	-0.5562117972170717	-0.2686942734317826	2.0421943532223965	-0.4145192578376291	-0.27709826595556825	1.957342506487356	-0.4186737857835769	-0.25482722462496277	1.9318438824508517	-0.5563958894440212	-0.21684071460902538	2.0492082572920074	-0.5819932416704434	-0.2137311690405274	1.9907585816363602	-0.6528203620378915	-0.238084099064176	1.9677287726463686	-0.711412824237133
24	0.8	-0.24147725373918133	1.887656014406022	-0.5018626738009863	-0.2562324314707581	1.8825610164339663	-0.4449792309911299	-0.24250552642738651	1.7386151446958087	-0.48420687956360114													-0.2234743502896172	1.8926234290449788	-0.5606999186848302	-0.21939242901204362	1.7463625552271433	-0.5672034410645298	-0.20822032552426722	1.5926304093448609	-0.5600663619140587	-0.21123684335803722	1.5546271150000248	-0.6352164938277656	-0.2000613796288161	1.5667935733359424	-0.6476600998577048	-0.20916477048972001	1.6000479202585927	-0.5487245952072881	-0.24107099121955775	2.0468927883149006	-0.5016667642061902	-0.2490834228815203	2.1089868543998835	-0.5588628142980024	-0.26786665114141583	2.043643936028131	-0.42024139365318347	-0.2760565000838308	1.9581582474940658	-0.4242100047166099	-0.24800835859841058	1.9445910162769464	-0.5731061985082757	-0.21769555373070135	2.0493539174427737	-0.584867443288711	-0.21252619151938	1.991933474778943	-0.6494892201196012	-0.22305979924391633	1.9661308411388407	-0.7292631223893462
25	0.8333333333333334	-0.24221960972643972	1.884454941143739	-0.5045969610138782	-0.25719244372882133	1.8798010998313284	-0.4480086700866237	-0.24250552642738651	1.7386151446958087	-0.48420687956360114													-0.22316395693669605	1.8889493411086395	-0.5602933147113198	-0.21715168308746685	1.7456212073206043	-0.5717212454258498	-0.20719265923581814	1.592933727972929	-0.5612206527947546	-0.2124971799497286	1.5547546118876086	-0.629844048644884	-0.1991797407101656	1.5668289758425742	-0.6444444833591215	-0.20916477048972001	1.6000479202585927	-0.5487245952072881	-0.24193512338637146	2.0473709275464382	-0.5049633818757326	-0.24894592902880683	2.1099801160043863	-0.5588012381440228	-0.26534039019808614	2.045275671217216	-0.4287217568219292	-0.26630884674982075	1.9601608259982841	-0.4438712867626648	-1.5433763301760772	1.8620864983174008	0.7934634481026535	-0.21766323202115365	2.049213323277102	-0.5849604214432512	-0.21245320377322782	1.9938135987998884	-0.6496997795313165	-0.2195109444713777	1.9666678083203721	-0.7285381043399661
26	0.8666666666666667	-0.24033148116936373	1.8860715263802008	-0.5071449305948358	-0.25533267277050237	1.8816264166253776	-0.45053034121648344	-0.24250552642738651	1.7386151446958087	-0.48420687956360114													-0.2242642397222628	1.8920867024981998	-0.5638458946802827	-0.21491093716289006	1.7448798594140653	-0.5762390497871697	-0.20616499294736904	1.593237046600997	-0.5623749436754506	-0.21365095544284368	1.5559507017367011	-0.6328390511900472	-0.20008446792507772	1.5669008723119824	-0.6477453739264567	-0.20916477048972001	1.6000479202585927	-0.5487245952072881	-0.23992689460496724	2.047485484848796	-0.5071869931443379	-0.24693707512533783	2.1111340335684208	-0.5615580135880985	-0.26142096313815105	2.0465086175412566	-0.4330280079530934	-0.25528536192438434	1.9671885157839764	-0.4780329549351665	-1.5081711183975786	1.8685269479560624	0.7210203110341128	-0.21565211803360515	2.0469239971715325	-0.5867676835391786	-0.21038026984275196	1.9808129787732247	-0.6486769066000898	-1.318338260530185	1.863753295034185	0.40230193484519455
27	0.9	-0.24077898745250173	1.8824114041011402	-0.5066747813548041	-0.2559100847922273	1.879357658223631	-0.45040715316186647	-0.24250552642738651	1.7386151446958087	-0.48420687956360114													-0.22377963554706148	1.8876206423021427	-0.5603300768272451	-0.215624470748819	1.7412612681781463	-0.5793907687833835	-0.20263538299044828	1.5929972367547658	-0.5682143020338448	-0.20650341820190035	1.5562501762498924	-0.6403648609000762	-0.19759077801843197	1.5685722551941763	-0.6506378630564869	-0.20916477048972001	1.6000479202585927	-0.5487245952072881	-0.2389273994235015	2.0477969022525904	-0.512475970675205	-0.24169230129715127	2.114325016210484	-0.5712832033550036	-0.26056235852070464	2.0480724368192877	-0.43903183710250065	-1.6595703602819702	1.8869056803560236	0.9962980698027892	-1.4500980636339225	1.8764146708187859	0.6063113112112617	-0.21464633954302484	2.0470477878865667	-0.5837484786981834	-0.2125750828229849	1.9788323449966698	-0.6461340527057153	-1.297107527500013	1.8648563225534838	0.3632450944404418
28	0.9333333333333333	-0.2353047477860281	1.8809219060645157	-0.5076285529719506	-0.25040187421381477	1.8767838061562339	-0.4509010438921942	-0.24250552642738651	1.7386151446958087	-0.48420687956360114													-0.2202863861731538	1.8843635137783812	-0.5589078902599135	-0.21370686060354996	1.734966811042981	-0.5851122203699016	-0.19910577303352753	1.5927574269085345	-0.5740536603922389	-0.2060257695267998	1.5567423279217767	-0.6409490616161692	-0.1973478478102087	1.5677690093968397	-0.6506386126549933	-0.20916477048972001	1.6000479202585927	-0.5487245952072881	-0.23591421975430854	2.046471204383217	-0.5194944271032632	-0.24046154927223082	2.114760976921282	-0.5765010076336297	-0.2556885968792057	2.0508663588943725	-0.44921355625308507	-0.24550795130726766	2.0058973068813617	-0.5408556754748647	-1.0432401558519806	1.9158673938193325	0.14754147486959251	-0.21246386261997027	2.046888777280976	-0.5852724120343504	-0.20469384815909336	1.9891100252206884	-0.6610002114994152	-0.20375430913754305	1.9886071392656308	-0.7805474505690442
29	0.9666666666666667	-0.23205956736863048	1.8848960393776313	-0.5157456599744146	-0.24740277825534177	1.8810208676135387	-0.4594640458327327	-0.24250552642738651	1.7386151446958087	-0.48420687956360114													-0.21699270501778845	1.8866885858434224	-0.5668401842929011	-0.21248255628151871	1.7379280696253518	-0.5909856278049302	-0.19872521393356365	1.5937811331619187	-0.574618738270754	-0.20565203310021396	1.5602728208594638	-0.6367914073944912	-0.1944342399140322	1.5686873693849732	-0.6493333570828833	-0.20916477048972001	1.6000479202585927	-0.5487245952072881	-0.23175896254969447	2.0468341488680544	-0.5323015511566617	-0.23713498166777458	2.119314232037665	-0.592979843436026	-0.25303467306950006	2.0494598089626423	-0.4731621257936307	-0.2516565124550977	2.003001965368994	-0.6047796955155677	-0.6363822480700388	1.9553201168198788	-0.31122836147207666	-0.2075393785610164	2.047180685216655	-0.5873655009928007	-1.4308665381119883	1.8873045902470744	0.640833588968596	-0.19411597523716048	1.9958601908361933	-0.7888126778871327
30	1.0	-0.22683312757775875	1.8887914228686267	-0.526334013012954	-0.2412377445237269	1.8872718011573348	-0.4755028802945631	-0.24250552642738651	1.7386151446958087	-0.48420687956360114													-0.20950969858236348	1.8914004164695735	-0.5795111002304524	-0.2101090660839221	1.741466349212803	-0.5938244893450123	-0.20192842330623068	1.591496327948522	-0.5751442780341296	-0.20251237854348603	1.5586779459896778	-0.644261376047917	-0.1950454369917998	1.5673377551609722	-0.6530234343472388	-0.20916477048972001	1.6000479202585927	-0.5487245952072881	-0.2275273958792752	2.0478515340062122	-0.5453412852494609	-0.23697789253754453	2.1174000436737597	-0.6009496008426829	-0.2520828846057821	2.048854206447806	-0.48652507368010983	-0.25238183812732984	2.0077573815053857	-0.6170480063206628	-0.229524340288097	1.9947728398204254	-0.7699981978137458	-0.20157774520246685	2.0497336741307306	-0.6050840806860365	-1.374376628283267	1.887317599662797	0.5441440491739454	-0.18583770941529743	2.0031601286787506	-0.8017173702371386
31	1.0333333333333334	-0.22185117122612016	1.8857959235228305	-0.5359279381780754	-0.24044339413614038	1.8841863885140777	-0.48911724011732505	-0.24250552642738651	1.7386151446958087	-0.48420687956360114													-0.20633839043670366	1.8906187047431362	-0.5872200439128872	-0.20376497739949895	1.7420794506082986	-0.600679877900378	-0.20180165175912151	1.591175049361972	-0.5751553105225637	-0.20311298038185002	1.5570590949563092	-0.6477611768827182	-0.19404057566100988	1.5660392921396713	-0.6577702494189042	-0.20916477048972001	1.6000479202585927	-0.5487245952072881	-0.22538432438494044	2.048359147847865	-0.5560072041356531	-0.23169455260872293	2.118772302781779	-0.6110395763483997	-0.2510469930650401	2.049164440315212	-0.4919915026712005	-0.25299719119351327	2.000907757649121	-0.6173006148139754	-0.2292925906678369	1.9892999707926593	-0.7785126366314568	-0.19891009686977904	2.0500698933862838	-0.6241608474805694	-1.3463536968327923	1.883901133602193	0.5067722270248509	-1.2187989449429817	1.8676918255010966	0.2436339412707768
